<?xml version="1.0" encoding="utf-8"?>
<!-- Generator: Adobe Illustrator 16.0.0, SVG Export Plug-In . SVG Version: 6.00 Build 0)  -->
<!DOCTYPE svg PUBLIC "-//W3C//DTD SVG 1.1//EN" "http://www.w3.org/Graphics/SVG/1.1/DTD/svg11.dtd">
<svg version="1.1" id="Layer_1" xmlns="http://www.w3.org/2000/svg" xmlns:xlink="http://www.w3.org/1999/xlink" x="0px" y="0px"
	 width="580px" height="454px" viewBox="0 0 580 454" enable-background="new 0 0 580 454" xml:space="preserve">
<g opacity="0.8">
	<path fill="#FFFFFF" d="M196.719,137.064c-0.613,0-1.216-0.042-1.81-0.124c-4.164-0.579-7.545-3.113-10.048-7.534
		c-0.817-1.442-1.388-2.855-1.751-4.24c-6.703,6.506-14.354,11.799-20.353,11.799c-0.046,0-0.091,0-0.136-0.001
		c-2.938-0.039-8.132-1.331-9.905-9.536c-1.895-8.758,8.258-21.017,18.553-26.541c7.531-4.043,14.236-3.912,18.392,0.357
		c0.6,0.616,0.927,1.396,0.983,2.191c0.569-0.798,1.128-1.586,1.657-2.366c0.95-1.4,2.768-1.922,4.317-1.232
		c1.548,0.688,2.381,2.384,1.979,4.029c-0.709,2.901-3.823,7.956-8.129,13.254c-1.188,3.051-1.218,5.835,0.482,8.836
		c1.394,2.459,3.003,3.784,4.922,4.051c2.26,0.316,7.439-0.546,16.821-9.812c1.375-1.359,3.591-1.345,4.949,0.031
		c1.358,1.375,1.345,3.591-0.031,4.949C209.533,133.155,202.673,137.063,196.719,137.064z M181.416,104.931
		c-2.512,0-5.383,1.344-6.836,2.124c-9.06,4.861-15.947,14.615-15.021,18.894c0.861,3.985,2.412,4.007,3.157,4.017
		c0.022,0,0.045,0,0.067,0c5.355,0,14.901-8.536,21.6-16.43c1.004-2.279,2.332-4.44,3.713-6.479c-1.192,0.332-2.524,0.021-3.45-0.93
		C183.796,105.254,182.649,104.931,181.416,104.931z"/>
</g>
<g opacity="0.8">
	<path fill="#FFFFFF" d="M229.971,229.461c-4.499,0-8.159-1.473-10.567-4.319c-4.469-5.281-4.172-14.519,0.882-27.453
		c2.657-6.801,11.153-20.957,23.669-32.087c15.425-13.719,32.048-18.509,48.165-13.902c4.435-9.625,8.46-19.329,12.315-28.891
		c-0.367,0.391-0.736,0.778-1.105,1.161c-10.371,10.756-18.371,15.438-24.465,14.308c-3.169-0.587-7.243-3.001-8.664-11.167
		c-1.228-7.054,2.471-14.217,10.146-19.651c8.106-5.74,20.642-9.353,27.587-5.458c1.14,0.639,2.076,1.446,2.795,2.396
		c1.172-1.598,2.123-3,2.78-4.101c0.938-1.572,2.93-2.153,4.566-1.338c1.637,0.816,2.37,2.756,1.681,4.451
		c-1.6,3.936-3.22,7.994-4.874,12.14c-5.562,13.938-11.314,28.352-18.063,42.631c-12.904,27.308-25.874,46.261-40.814,59.647
		c-6.013,5.387-14.045,9.631-20.962,11.075C233.259,229.276,231.562,229.461,229.971,229.461z M280.007,156.973
		c-10.509,0-21.027,4.635-31.401,13.86c-11.512,10.237-19.481,23.468-21.801,29.403c-5.504,14.087-3.272,18.948-2.058,20.384
		c2.057,2.431,6.438,1.939,8.862,1.432c5.784-1.208,12.574-4.824,17.723-9.437c13.689-12.266,25.729-29.63,37.753-54.486
		C286.063,157.358,283.034,156.973,280.007,156.973z M300.833,107.384c-4.43,0-11.059,1.977-16.441,5.788
		c-3.163,2.239-8.315,6.872-7.295,12.739c0.403,2.318,1.259,5.152,3.042,5.483c5.437,1.002,17.115-10.526,25.357-20.363
		c-0.054-0.286-0.073-0.583-0.053-0.887c0.091-1.349-0.39-1.733-0.932-2.037C303.647,107.623,302.373,107.384,300.833,107.384z"/>
</g>
<g opacity="0.8">
	<path fill="#FFFFFF" d="M390.627,239.215c-3.667,0-6.771-1.15-9.04-3.407c-4.885-4.861-5.354-14.129-1.397-27.546
		c2.061-6.983,9.228-21.757,20.528-33.831c13.937-14.891,29.726-20.979,45.747-17.678c2.151-5.695,4.415-11.442,6.616-17.033
		c1.88-4.774,3.72-9.446,5.467-14.015c-5.776,6.358-12.396,12.286-18.071,14.364c-4.474,1.638-13.252,3.118-17.786-1.735
		c-3.17-3.393-3.228-8.595-0.17-15.461c0.071-0.159,0.154-0.313,0.248-0.461c4.019-6.289,10.698-16.887,11.515-18.552
		c0.853-1.735,2.949-2.451,4.685-1.601c1.735,0.852,2.451,2.949,1.601,4.685c-1.215,2.475-10.154,16.501-11.756,19.01
		c-1.617,3.712-1.995,6.544-1.007,7.602c1.476,1.577,6.635,1.271,10.263-0.059c9.69-3.55,25.545-24.126,28.193-29.616
		c0.797-1.65,2.729-2.404,4.434-1.735c1.705,0.671,2.604,2.542,2.062,4.292c-3.497,11.298-8.192,23.222-13.164,35.847
		c-2.161,5.49-4.383,11.132-6.491,16.707c11.323,3.854,41.377,11.922,67.943,0.141c18.596-8.246,32.19-24.703,40.406-48.913
		c0.622-1.83,2.608-2.808,4.439-2.189c1.83,0.621,2.811,2.608,2.189,4.439c-8.878,26.158-23.764,44.019-44.244,53.083
		c-29.227,12.937-61.11,4.244-73.201,0.028c-10.147,26.778-21.002,45.864-34.045,59.905c-5.435,5.852-12.926,10.721-19.552,12.709
		C394.767,238.877,392.614,239.215,390.627,239.215z M437.873,162.862c-29.911,0-48.588,39.308-50.969,47.38
		c-4.318,14.639-1.704,19.285-0.38,20.604c2.146,2.137,6.249,1.32,8.502,0.644c5.503-1.65,11.8-5.776,16.436-10.768
		c12.361-13.308,22.731-31.575,32.514-57.319C441.894,163.035,439.857,162.862,437.873,162.862z"/>
</g>
<g opacity="0.8">
	<path fill="#FFFFFF" d="M245.265,294.968c-4.212,0-8.475-0.972-12.562-3.285c-2.546-1.441-4.613-3.286-6.162-5.473
		c-5.14,2.76-10.198,5.234-14.129,6.814c-1.791,0.725-3.831-0.148-4.553-1.941c-0.722-1.794,0.148-3.832,1.941-4.553
		c4.014-1.613,8.984-4.071,13.914-6.739c-0.097-0.433-0.181-0.872-0.25-1.319c-1.105-7.116,1.643-15.243,7.171-21.21
		c5.588-6.031,15.886-9.02,21.729-3.667c3.559,3.262,4.773,9.603-2.492,17.619c-2.142,2.362-9.219,7.009-17.144,11.56
		c0.902,1.096,2.045,2.037,3.424,2.817c10.227,5.791,22.459,0.001,29.829-6.715c1.554-1.417,2.949-2.912,4.146-4.444
		c1.189-1.524,3.391-1.793,4.912-0.604c1.523,1.189,1.794,3.39,0.604,4.912c-1.438,1.842-3.103,3.628-4.946,5.31
		C264.355,289.828,254.947,294.968,245.265,294.968z M244.493,257.804c-2.552,0-5.944,1.218-8.723,4.216
		c-3.707,4-5.793,9.402-5.522,14.105c7.053-4.1,12.998-8.025,14.437-9.612c3.099-3.418,4.283-6.535,2.95-7.757
		C246.973,258.149,245.853,257.804,244.493,257.804z"/>
</g>
<g opacity="0.8">
	<path fill="#FFFFFF" d="M202.408,294.94c-4.5,0-8.802-1.088-12.679-3.282c-2.416-1.368-4.402-3.1-5.922-5.142
		c-3.002,1.658-5.895,3.141-8.401,4.264c-1.76,0.791-3.835,0.002-4.625-1.764c-0.79-1.764-0.001-3.834,1.764-4.625
		c2.56-1.146,5.406-2.611,8.293-4.215c-0.14-0.563-0.255-1.14-0.347-1.729c-1.105-7.117,1.642-15.245,7.171-21.212
		c5.356-5.781,12.603-7.227,17.413-6.094c3.66,0.862,6.285,3.154,7.203,6.289c0.842,2.879,0.578,7.617-5.461,13.843
		c-2.254,2.323-9.318,7.176-16.869,11.702c0.87,0.999,1.948,1.864,3.23,2.59c9.231,5.228,19.018,0.787,24.028-2.325
		c1.644-1.018,3.801-0.516,4.82,1.127s0.515,3.8-1.127,4.82C214.749,293.009,208.403,294.94,202.408,294.94z M201.774,257.772
		c-2.686,0-6.19,1.214-8.978,4.222c-3.79,4.09-5.886,9.645-5.501,14.421c6.915-4.207,12.966-8.437,14.496-10.014
		c3.299-3.4,4.091-5.898,3.768-7.004c-0.27-0.92-1.551-1.314-2.089-1.441C202.96,257.836,202.389,257.772,201.774,257.772z"/>
</g>
<g opacity="0.8">
	<path fill="#FFFFFF" d="M227.343,445.004c-4.5,0-8.802-1.088-12.679-3.282c-2.299-1.302-4.188-2.944-5.632-4.878
		c-3.852,2.154-7.557,4.079-10.583,5.436c-1.76,0.791-3.834,0.002-4.625-1.764c-0.79-1.764-0.001-3.834,1.764-4.625
		c2.985-1.338,6.695-3.284,10.528-5.444c-0.091-0.404-0.169-0.814-0.233-1.232c-1.115-7.178,1.841-15.574,7.715-21.914
		c5.356-5.781,12.602-7.228,17.413-6.094c3.66,0.862,6.285,3.154,7.203,6.289c0.842,2.879,0.578,7.617-5.461,13.843
		c-2.095,2.159-9.55,7.166-17.581,11.955c0.795,0.897,1.776,1.678,2.941,2.337c9.23,5.227,19.018,0.787,24.028-2.325
		c1.643-1.017,3.8-0.516,4.82,1.127c1.02,1.643,0.515,3.8-1.127,4.82C239.684,443.072,233.338,445.004,227.343,445.004z
		 M227.71,407.836c-2.686,0-6.19,1.214-8.978,4.222c-3.958,4.271-6.24,9.828-6.074,14.571c7.165-4.315,13.55-8.598,15.069-10.164
		c3.299-3.4,4.091-5.898,3.768-7.004c-0.27-0.92-1.551-1.314-2.089-1.441C228.896,407.899,228.324,407.836,227.71,407.836z"/>
</g>
<g opacity="0.8">
	<path fill="#FFFFFF" d="M131.221,139.542c-5.823,0-10.798-1.896-14.682-5.7c-3.044-2.98-6.744-9.773,2.61-21.8l41.57-59.845
		c3.252-5.177,4.066-9.806,2.564-14.563c-1.967-6.229-9.871-10.818-19.69-7.718c-0.31,0.098-0.577,0.177-0.818,0.249
		c-1.002,0.297-1.24,0.367-3.526,1.954c-1.665,1.154-6.344,7.247-9.726,12.231l-24.278,34.438l-3.264,4.693
		c-10.146,14.606-17.478,25.16-32.688,41.626c-1.313,1.421-3.528,1.505-4.946,0.196c-1.42-1.312-1.508-3.526-0.196-4.946
		c14.881-16.108,21.724-25.959,32.081-40.87l3.281-4.718l24.253-34.401c1.261-1.859,7.91-11.519,11.492-14.002
		c2.959-2.054,3.774-2.394,5.526-2.914c0.206-0.061,0.435-0.129,0.699-0.212c14.004-4.421,25.473,2.776,28.476,12.285
		c2.146,6.797,1.046,13.493-3.362,20.472c-0.027,0.043-0.056,0.086-0.084,0.128l-41.67,59.989c-0.038,0.054-0.076,0.105-0.117,0.157
		c-3.188,4.082-6.347,9.575-3.289,12.568c8.023,7.859,22.061,1.452,29.716-3.07c1.664-0.983,3.811-0.432,4.794,1.233
		c0.983,1.664,0.431,3.811-1.233,4.794C145.987,136.953,138.025,139.541,131.221,139.542z"/>
</g>
<g opacity="0.8">
	<path fill="none" stroke="#FFFFFF" stroke-width="7" stroke-linecap="round" stroke-linejoin="round" d="M94.547,85.134"/>
</g>
<g opacity="0.8">
	<path fill="#FFFFFF" d="M256.226,137.415c-2.209,0-4.259-0.412-5.989-1.284c-1.935-0.975-4.718-3.124-5.521-7.589
		c-5.023,4.564-10.481,8.084-16.024,8.731c-4.087,0.482-7.838-0.62-11.146-3.265c-3.367-2.692-5.229-5.691-5.532-8.916
		c-0.518-5.496,3.47-10.148,7.326-14.648c1.545-1.803,3.144-3.668,4.388-5.512c1.081-1.604,3.26-2.025,4.858-0.944
		c1.603,1.081,2.025,3.256,0.944,4.858c-1.47,2.179-3.201,4.199-4.876,6.153c-2.905,3.391-5.91,6.897-5.671,9.437
		c0.118,1.262,1.105,2.643,2.934,4.104c1.845,1.475,3.734,2.035,5.964,1.78c7.086-0.828,15.559-9.857,21.83-17.481
		c1.264-1.697,2.669-3.417,4.101-5.17c0.244-0.299,0.489-0.599,0.735-0.9c1.053-1.347,2.007-2.562,2.842-3.583
		c1.206-1.478,3.374-1.716,4.875-0.533c1.499,1.181,1.775,3.345,0.622,4.864c-0.912,1.203-1.894,2.423-2.869,3.62
		c-0.041,0.053-0.082,0.105-0.124,0.159c-1.437,1.836-3.012,3.85-4.701,5.917c-1.798,2.443-3.223,4.775-3.513,6.568
		c-0.521,3.213,0.054,5.264,1.708,6.097c3.312,1.671,11.127-0.456,16.236-5.696c1.349-1.384,3.565-1.412,4.949-0.062
		c1.384,1.349,1.412,3.564,0.062,4.949C269.522,134.312,262.279,137.415,256.226,137.415z"/>
</g>
<g opacity="0.8">
	<path fill="#FFFFFF" d="M368.212,139.568c-4.478,0-7.938-1.132-9.537-1.773c-1.293-0.519-2.275-1.51-2.765-2.79
		c-1.129-2.951,0.562-6.376,2.902-11.116c1.728-3.497,3.876-7.849,3.876-10.64c0-0.815,0-1.659-3.212-1.907
		c-7.657-0.551-24.124,15.896-29.541,21.312c-1.079,1.079-1.969,1.968-2.618,2.586c-1.124,1.066-2.814,1.271-4.156,0.498
		c-1.343-0.771-2.019-2.334-1.661-3.841c1.219-5.146,4.082-9.868,6.851-14.435c0.005-0.009,0.01-0.017,0.015-0.024
		c-2.278,0.422-4.553,0.511-6.755,0.244c-6.145-0.747-11.2-4.164-14.62-9.884c-0.992-1.659-0.451-3.808,1.208-4.8
		c1.658-0.992,3.809-0.452,4.8,1.208c2.301,3.848,5.482,6.044,9.457,6.527c3.422,0.413,7.254-0.497,10.875-2.479
		c0.078-0.191,0.153-0.384,0.227-0.575c2.702-7.092,6.111-14.093,9.72-21.504c1.65-3.388,3.355-6.891,5.081-10.576l0.41-0.883
		c19.021-40.999,33.182-62.801,42.085-64.802c2.208-0.495,4.346,0,6.021,1.397c2.652,2.208,4.768,7.021-2.485,24.779
		c-4.077,9.984-10.274,21.945-16.578,31.996c-11.67,18.61-20.701,27.696-31.157,38.218l-2.187,2.203
		c-1.765,1.78-3.666,3.33-5.652,4.628c-0.488,1.018-1.017,2.021-1.567,3.013c8.362-7.209,16.331-12.289,22.768-11.787
		c8.731,0.673,9.674,6.438,9.674,8.886c0,4.425-2.443,9.373-4.6,13.738c-0.729,1.477-1.729,3.505-2.228,4.857
		c3.999,1.174,11.527,1.913,19.474-4.965c1.463-1.265,3.672-1.105,4.938,0.355c1.265,1.462,1.105,3.672-0.355,4.938
		C380.195,137.991,373.495,139.568,368.212,139.568z M392.273,16.778c-1.639,0.502-11.592,5.787-37.156,60.886l-0.42,0.903
		c-1.748,3.735-3.466,7.263-5.127,10.674c-1.346,2.763-2.662,5.466-3.92,8.131c8.804-8.952,16.414-17.35,26.23-33.002
		c5.7-9.091,11.444-20.053,15.363-29.324C392.619,22.328,392.476,17.907,392.273,16.778z"/>
</g>
<g opacity="0.8">
	<path fill="#FFFFFF" d="M126.095,46.754c-0.703,0-1.413-0.211-2.028-0.65c-1.574-1.122-1.94-3.308-0.818-4.881
		c1.57-2.203,2.188-4.886,1.741-7.553c-0.448-2.668-1.908-5.001-4.111-6.571c-2.203-1.571-4.888-2.186-7.555-1.741
		c-2.668,0.447-5.003,1.907-6.572,4.11c-0.64,0.896-1.126,1.881-1.444,2.926c-0.563,1.849-2.515,2.89-4.369,2.326
		c-1.849-0.564-2.891-2.521-2.326-4.369c0.54-1.77,1.36-3.434,2.439-4.946c2.654-3.725,6.602-6.194,11.114-6.951
		c4.512-0.757,9.05,0.289,12.775,2.944c3.726,2.655,6.195,6.602,6.952,11.114s-0.289,9.048-2.945,12.773
		C128.265,46.243,127.188,46.754,126.095,46.754z"/>
</g>
<g opacity="0.8">
	<path fill="#FFFFFF" d="M52.729,133.023c-10.005,0.001-19.055-6.923-21.332-17.083c-1.278-5.698-0.261-11.554,2.866-16.487
		c3.126-4.933,7.985-8.353,13.685-9.63c1.891-0.425,3.757,0.764,4.181,2.649c0.423,1.886-0.764,3.758-2.649,4.181
		c-3.874,0.869-7.179,3.194-9.304,6.547c-2.125,3.354-2.817,7.334-1.948,11.209c1.793,7.998,9.759,13.043,17.758,11.252
		c0.317-0.071,0.591-0.128,0.837-0.178c1.021-0.21,1.265-0.26,3.673-1.644c1.749-1.004,6.922-6.668,10.712-11.34
		c1.216-1.501,3.421-1.732,4.923-0.513c1.501,1.218,1.73,3.421,0.514,4.923c-1.453,1.79-8.889,10.833-12.662,13
		c-3.122,1.793-3.963,2.062-5.752,2.43c-0.21,0.043-0.442,0.091-0.713,0.151C55.913,132.851,54.309,133.023,52.729,133.023z"/>
</g>
<g opacity="0.8">
	<path fill="#FFFFFF" d="M115.435,444.015c-5.894,0-11.365-1.686-15.438-5.676c-3.044-2.98-6.744-9.773,2.61-21.8l41.57-59.845
		c3.252-5.177,4.066-9.806,2.564-14.563c-1.967-6.229-9.871-10.817-19.69-7.718c-0.31,0.098-0.577,0.177-0.818,0.249
		c-1.002,0.297-1.24,0.367-3.526,1.954c-1.665,1.154-6.344,7.247-9.726,12.231l-24.278,34.438l-3.264,4.693
		c-10.146,14.606-17.478,25.16-32.688,41.626c-1.313,1.42-3.528,1.506-4.946,0.196c-1.42-1.312-1.508-3.526-0.196-4.946
		c14.881-16.108,21.724-25.959,32.081-40.87l3.281-4.718l24.253-34.401c1.261-1.859,7.91-11.519,11.492-14.002
		c2.959-2.054,3.774-2.395,5.526-2.914c0.206-0.061,0.435-0.128,0.699-0.212c14.005-4.422,25.473,2.776,28.476,12.285
		c2.146,6.797,1.046,13.493-3.362,20.472c-0.027,0.043-0.056,0.086-0.084,0.128l-41.67,59.989c-0.038,0.054-0.076,0.105-0.117,0.157
		c-3.188,4.082-6.347,9.575-3.289,12.568c7.043,6.9,21.795,3.421,31.988-3.933c1.567-1.132,3.755-0.776,4.887,0.791
		c1.131,1.568,0.776,3.756-0.791,4.887C133.624,440.388,124.077,444.014,115.435,444.015z"/>
</g>
<g opacity="0.8">
	<path fill="#FFFFFF" d="M109.552,351.251c-0.703,0-1.413-0.211-2.028-0.65c-1.574-1.122-1.94-3.308-0.818-4.881
		c1.57-2.203,2.188-4.886,1.741-7.553c-0.448-2.668-1.908-5.001-4.111-6.571c-4.547-3.24-10.885-2.179-14.127,2.369
		c-0.64,0.896-1.126,1.881-1.444,2.926c-0.563,1.849-2.518,2.888-4.369,2.326c-1.849-0.564-2.891-2.521-2.326-4.369
		c0.54-1.77,1.36-3.434,2.439-4.946c5.48-7.689,16.196-9.488,23.89-4.007c3.726,2.655,6.195,6.603,6.952,11.114
		s-0.289,9.048-2.945,12.773C111.722,350.74,110.645,351.251,109.552,351.251z"/>
</g>
<g opacity="0.8">
	<path fill="#FFFFFF" d="M36.147,437.526c-4.098,0-8.117-1.158-11.661-3.403c-4.934-3.126-8.354-7.986-9.632-13.686
		c-2.596-11.573,6.557-21.232,13.911-28.994l0.305-0.321c1.329-1.402,3.545-1.465,4.948-0.134c1.403,1.329,1.463,3.545,0.134,4.948
		l-0.306,0.322c-6.534,6.896-13.941,14.713-12.162,22.647c0.869,3.874,3.194,7.179,6.548,9.304c3.354,2.125,7.337,2.813,11.21,1.948
		c0.317-0.071,0.591-0.128,0.837-0.178c1.021-0.21,1.265-0.26,3.673-1.644c1.749-1.004,6.922-6.668,10.712-11.34
		c1.217-1.501,3.421-1.731,4.923-0.513c1.501,1.218,1.73,3.421,0.514,4.923c-1.453,1.79-8.889,10.833-12.662,13
		c-3.122,1.793-3.963,2.062-5.752,2.43c-0.21,0.043-0.442,0.091-0.713,0.151C39.369,437.348,37.752,437.526,36.147,437.526z"/>
</g>
<g opacity="0.8">
	<path fill="#FFFFFF" d="M48.286,281.338c-0.85,0-1.701-0.308-2.374-0.929c-1.42-1.312-1.508-3.526-0.196-4.946
		c14.881-16.108,21.724-25.959,32.081-40.87l3.281-4.718l24.253-34.401c1.261-1.859,7.91-11.519,11.492-14.002
		c2.959-2.054,3.774-2.395,5.526-2.914c0.206-0.061,0.435-0.128,0.699-0.212c14.005-4.421,25.473,2.776,28.476,12.285
		c2.146,6.797,1.046,13.493-3.362,20.472c-0.027,0.043-0.056,0.086-0.084,0.128l-41.67,59.989c-1.104,1.588-3.284,1.979-4.872,0.878
		c-1.587-1.104-1.98-3.284-0.878-4.872l41.626-59.925c3.252-5.176,4.066-9.805,2.564-14.562c-1.967-6.228-9.872-10.818-19.69-7.718
		c-0.31,0.098-0.577,0.177-0.818,0.249c-1.002,0.297-1.24,0.367-3.526,1.954c-1.662,1.152-6.342,7.246-9.726,12.231L86.81,233.894
		l-3.264,4.693c-10.146,14.606-17.478,25.16-32.688,41.626C50.168,280.96,49.229,281.338,48.286,281.338z"/>
</g>
<g opacity="0.8">
	<path fill="#FFFFFF" d="M159.428,294.646c-5.823,0-10.798-1.896-14.682-5.7c-3.042-2.979-6.739-9.764,2.589-21.772l26.588-39.867
		c3.238-5.128,4.065-9.775,2.558-14.553c-1.967-6.228-9.872-10.819-19.69-7.718c-0.31,0.098-0.577,0.177-0.818,0.249
		c-1.002,0.297-1.24,0.367-3.526,1.954c-1.662,1.152-6.342,7.246-9.726,12.231l-24.278,34.438c-1.114,1.58-3.297,1.959-4.877,0.844
		c-1.58-1.113-1.958-3.297-0.844-4.877l24.242-34.387c1.261-1.859,7.91-11.519,11.492-14.002c2.959-2.054,3.774-2.395,5.526-2.914
		c0.206-0.061,0.435-0.128,0.699-0.212c14.003-4.422,25.473,2.776,28.476,12.285c2.146,6.797,1.046,13.493-3.362,20.472
		l-26.706,40.047c-0.049,0.072-0.1,0.144-0.154,0.212c-3.188,4.082-6.347,9.575-3.289,12.568c8.023,7.86,22.062,1.453,29.716-3.07
		c1.664-0.982,3.811-0.431,4.794,1.233s0.431,3.811-1.233,4.794C174.194,292.058,166.232,294.646,159.428,294.646z"/>
</g>
<g opacity="0.8">
	<path fill="none" stroke="#FFFFFF" stroke-width="7" stroke-linecap="round" stroke-linejoin="round" d="M68.105,234.234"/>
</g>
<g opacity="0.8">
	<path fill="#FFFFFF" d="M107.659,201.858c-0.703,0-1.413-0.211-2.028-0.65c-1.574-1.122-1.94-3.308-0.818-4.881
		c1.57-2.203,2.188-4.886,1.741-7.553c-0.448-2.668-1.908-5.001-4.111-6.571c-4.547-3.24-10.885-2.179-14.127,2.369
		c-0.64,0.896-1.126,1.881-1.444,2.926c-0.564,1.849-2.515,2.888-4.369,2.326c-1.849-0.564-2.891-2.521-2.326-4.369
		c0.54-1.77,1.36-3.434,2.439-4.946c5.48-7.689,16.196-9.488,23.89-4.007c3.726,2.655,6.195,6.603,6.952,11.114
		s-0.289,9.048-2.945,12.773C109.829,201.348,108.752,201.858,107.659,201.858z"/>
</g>
<g opacity="0.8">
	<path fill="#FFFFFF" d="M34.294,288.128c-10.005,0.001-19.055-6.923-21.332-17.083c-1.278-5.698-0.261-11.554,2.866-16.487
		c3.126-4.933,7.985-8.353,13.685-9.63c1.89-0.426,3.757,0.763,4.181,2.649c0.423,1.886-0.764,3.758-2.649,4.181
		c-3.874,0.869-7.179,3.194-9.304,6.547c-2.125,3.354-2.817,7.334-1.948,11.209c1.794,7.998,9.762,13.041,17.758,11.252
		c0.317-0.071,0.591-0.128,0.837-0.178c1.021-0.21,1.265-0.26,3.673-1.644c1.749-1.004,6.922-6.668,10.712-11.34
		c1.217-1.501,3.421-1.732,4.923-0.513c1.501,1.218,1.73,3.421,0.514,4.923c-1.453,1.79-8.889,10.833-12.662,13
		c-3.122,1.793-3.963,2.062-5.752,2.43c-0.21,0.043-0.442,0.091-0.713,0.151C37.478,287.955,35.873,288.128,34.294,288.128z"/>
</g>
<g opacity="0.8">
	<path fill="#FFFFFF" d="M398.884,140.374c-4.981,0-9.206-1.326-12.124-3.271c-4.558-3.036-6.083-7.614-3.795-11.393
		c1.421-2.346,37.019-66.882,55.643-100.679c0.933-1.693,3.06-2.309,4.755-1.376c1.692,0.933,2.309,3.062,1.376,4.755
		c-2.201,3.995-53.937,97.873-55.785,100.926c-0.039,0.384,0.973,2.027,4.169,3.145c7.951,2.778,21.644-0.018,34.084-17.048
		c1.141-1.561,3.328-1.903,4.891-0.762c1.561,1.14,1.902,3.33,0.762,4.891C421.408,135.238,408.683,140.374,398.884,140.374z"/>
</g>
<g opacity="0.8">
	<path fill="#FFFFFF" d="M412.172,107.213h-28.673c-1.933,0-3.5-1.567-3.5-3.5s1.567-3.5,3.5-3.5h28.673c1.933,0,3.5,1.567,3.5,3.5
		S414.104,107.213,412.172,107.213z"/>
</g>
<g opacity="0.8">
	<path fill="#FFFFFF" d="M282.723,294.812c-4.981,0-9.206-1.326-12.124-3.271c-4.558-3.036-6.083-7.614-3.795-11.393
		c1.421-2.346,37.019-66.882,55.643-100.679c0.933-1.692,3.061-2.309,4.755-1.376c1.692,0.933,2.309,3.062,1.376,4.755
		c-2.201,3.995-53.937,97.873-55.785,100.926c-0.039,0.384,0.973,2.027,4.169,3.145c7.95,2.776,21.645-0.018,34.084-17.048
		c1.141-1.562,3.328-1.902,4.891-0.762c1.561,1.14,1.902,3.33,0.762,4.891C305.247,289.677,292.521,294.812,282.723,294.812z"/>
</g>
<g opacity="0.8">
	<path fill="#FFFFFF" d="M298.592,259.484H271.65c-1.933,0-3.5-1.567-3.5-3.5s1.567-3.5,3.5-3.5h26.941c1.933,0,3.5,1.567,3.5,3.5
		S300.524,259.484,298.592,259.484z"/>
</g>
<g opacity="0.8">
	<path fill="#FFFFFF" d="M318.476,295.33c-5.172,0-12.45-3.646-16.567-8.301c-2.724-3.079-3.955-6.404-3.56-9.618
		c0.123-1.005,0.676-1.906,1.514-2.474c0.839-0.566,1.88-0.743,2.86-0.481c1.88,0.5,3.931,0.868,6.1,1.13
		c-0.469-1.18-0.277-2.574,0.614-3.597c2.981-3.418,5.895-7.39,8.235-10.582l1.11-1.511c0.569-0.773,1.029-1.414,1.445-1.994
		c1.083-1.511,1.938-2.704,3.63-4.686c1.073-1.257,2.88-1.592,4.335-0.802c1.452,0.79,2.154,2.489,1.681,4.074
		c-0.202,0.68,0.468,1.532,1.773,2.869c0.373,0.381,0.701,0.724,0.949,1.022c2.308,2.78,2.578,3.2,4.331,6.175l0.535,0.906
		c1.5,2.537,2.316,5.04,2.588,7.428c1.007-0.094,1.99-0.188,2.947-0.278l2.732-0.259c1.922-0.17,3.631,1.236,3.81,3.161
		c0.179,1.924-1.236,3.63-3.161,3.81l-2.718,0.257c-1.417,0.135-2.892,0.274-4.41,0.413c-1.084,3.076-3.057,5.701-5.443,7.602
		C328.757,293.615,324.172,295.33,318.476,295.33z M307.186,282.43c3.014,3.38,8.436,5.9,11.29,5.9
		c4.088,0,7.164-1.181,10.972-4.212c0.532-0.424,1.037-0.91,1.493-1.451C322.987,283.205,314.544,283.404,307.186,282.43z
		 M315.174,276.057c5.788,0.201,12.017-0.109,17.895-0.563c-0.189-1.399-0.702-2.896-1.632-4.469l-0.539-0.914
		c-1.599-2.711-1.661-2.817-3.688-5.258c-0.146-0.177-0.348-0.375-0.568-0.601c-0.374-0.383-0.844-0.863-1.325-1.437
		c-0.272,0.377-0.568,0.785-0.901,1.235l-1.099,1.496C321.016,268.685,318.179,272.553,315.174,276.057z"/>
</g>
<g opacity="0.8">
	<path fill="#FFFFFF" d="M146.733,443.895c-1.202,0-2.372-0.138-3.483-0.445c-3.279-0.906-5.747-3.154-7.135-6.499
		c-2.123-5.113,2.684-14.052,17.736-32.979c0.681-0.856,1.38-1.735,1.762-2.234c0.247-0.551,0.641-1.045,1.168-1.419
		c1.422-1.007,3.438-0.845,4.636,0.421c2.146,2.268,0.73,4.047-2.087,7.59c-2.873,3.612-17.12,21.771-16.706,26.041
		c0.717,1.652,1.704,2.115,2.489,2.333c4.754,1.318,14.161-3.826,18.97-7.379c1.555-1.149,3.745-0.82,4.895,0.732
		s0.823,3.743-0.729,4.894C166.878,435.965,155.879,443.894,146.733,443.895z"/>
</g>
<g opacity="0.8">
	<path fill="#FFFFFF" d="M185.197,445.002c-6.604,0.001-12.627-2.098-16.337-6.19c-2.223-2.453-6.641-9.264,0.337-19.51
		c9.802-14.392,17.374-20.56,23.832-19.436c4.398,0.771,6.548,4.791,7.124,7.044c0.479,1.872-0.65,3.778-2.523,4.258
		c-1.854,0.476-3.751-0.635-4.247-2.483c-0.025-0.078-0.582-1.766-1.58-1.926c-0.509-0.083-5.374-0.322-16.82,16.482
		c-2.11,3.101-3.986,7.503-0.936,10.869c4.01,4.424,14.67,5.687,24.151,0.511c1.697-0.924,3.822-0.302,4.749,1.396
		c0.926,1.696,0.302,3.822-1.396,4.749C196.344,443.608,190.578,445.002,185.197,445.002z"/>
</g>
<g opacity="0.8">
	<circle fill="#FFFFFF" cx="167.512" cy="389.679" r="3.878"/>
</g>
</svg>
