<?xml version="1.0" encoding="utf-8"?>
<!-- Generator: Adobe Illustrator 16.0.0, SVG Export Plug-In . SVG Version: 6.00 Build 0)  -->
<!DOCTYPE svg PUBLIC "-//W3C//DTD SVG 1.1//EN" "http://www.w3.org/Graphics/SVG/1.1/DTD/svg11.dtd">
<svg version="1.1" id="Layer_1" xmlns="http://www.w3.org/2000/svg" xmlns:xlink="http://www.w3.org/1999/xlink" x="0px" y="0px"
	 width="120px" height="36px" viewBox="0 0 120 36" enable-background="new 0 0 120 36" xml:space="preserve">
<rect display="none" width="120" height="36"/>
<g>
	<path fill="#FFFFFF" d="M21.373,13.917c-0.308,0-0.575-0.228-0.616-0.542c-0.043-0.34,0.196-0.652,0.537-0.696l0.029-0.003
		c3.688-0.478,12.327-1.594,11.883-6.939c-0.219-2.643-3.745-3.122-5.578-3.008c-2.888,0.183-6.876,3.476-8.998,5.422
		c-0.252,0.233-0.646,0.216-0.877-0.037c-0.233-0.252-0.216-0.646,0.037-0.878c2.738-2.514,6.654-5.551,9.76-5.747
		c3.141-0.196,6.634,1.017,6.895,4.146c0.237,2.849-1.438,5.026-4.978,6.472c-2.764,1.129-6.033,1.551-7.985,1.804l-0.028,0.003
		C21.426,13.917,21.399,13.917,21.373,13.917z"/>
</g>
<g>
	<path fill="#FFFFFF" d="M12.742,23.82c-0.097,0-0.183-0.016-0.255-0.037c-0.586-0.171-0.817-0.817-1.137-1.713
		c-0.451-1.258-1.068-2.981-2.712-3.718c-1.453-0.649-3.527-0.438-6.163,0.63c-0.318,0.128-0.68-0.025-0.81-0.343
		c-0.128-0.318,0.025-0.681,0.343-0.809c3.003-1.217,5.339-1.417,7.138-0.611c2.126,0.952,2.877,3.046,3.373,4.433
		c0.093,0.257,0.208,0.579,0.306,0.79c1.683-1.366,5.161-5.062,5.414-5.331c0.379-0.463,0.792-0.893,1.192-1.309
		c0.378-0.392,0.735-0.762,1.066-1.16c0.398-0.477,0.794-0.966,1.179-1.439c0.699-0.862,1.422-1.753,2.182-2.608
		c0.209-0.235,0.561-0.276,0.819-0.097c0.258,0.18,0.341,0.525,0.194,0.802c-0.698,1.314-1.37,3.805-0.678,5.236
		c0.457,0.943,1.326,1.486,2.582,1.612c2.328,0.234,5.556-1.122,6.908-2.9c0.208-0.273,0.597-0.326,0.871-0.118
		c0.273,0.208,0.327,0.598,0.119,0.871c-1.632,2.146-5.232,3.663-8.022,3.385c-1.691-0.17-2.927-0.967-3.576-2.308
		c-0.454-0.937-0.491-2.105-0.318-3.232c-0.039,0.047-0.078,0.095-0.116,0.143c-0.386,0.476-0.786,0.968-1.189,1.453
		c-0.36,0.43-0.748,0.833-1.125,1.226c-0.405,0.421-0.788,0.819-1.138,1.249c-0.009,0.011-0.018,0.022-0.028,0.033
		c-0.165,0.174-4.033,4.297-5.76,5.626C13.155,23.762,12.929,23.82,12.742,23.82z"/>
</g>
<g>
	<path fill="#FFFFFF" d="M41.058,19.09c-0.108,0-0.215-0.007-0.321-0.021c-0.739-0.103-1.34-0.554-1.784-1.338
		c-0.146-0.255-0.247-0.507-0.311-0.753c-1.191,1.155-2.549,2.095-3.615,2.095c-0.008,0-0.016,0-0.024,0
		c-0.522-0.007-1.444-0.236-1.759-1.693c-0.337-1.555,1.466-3.732,3.295-4.712c1.336-0.718,2.527-0.695,3.265,0.063
		c0.107,0.109,0.165,0.247,0.175,0.388c0.101-0.141,0.201-0.281,0.294-0.419c0.169-0.25,0.492-0.342,0.767-0.219
		c0.275,0.122,0.422,0.423,0.351,0.715c-0.126,0.515-0.679,1.413-1.443,2.354c-0.211,0.542-0.216,1.036,0.086,1.569
		c0.247,0.438,0.533,0.673,0.874,0.719c0.401,0.057,1.322-0.096,2.987-1.742c0.245-0.242,0.638-0.239,0.879,0.005
		c0.242,0.245,0.239,0.638-0.005,0.879C43.334,18.396,42.116,19.09,41.058,19.09z M38.342,13.384c-0.446,0-0.957,0.238-1.214,0.377
		c-1.609,0.863-2.832,2.594-2.667,3.354c0.153,0.708,0.429,0.712,0.561,0.713c0.004,0,0.008,0,0.012,0
		c0.951,0,2.646-1.516,3.835-2.917c0.178-0.405,0.414-0.789,0.659-1.15c-0.212,0.059-0.448,0.003-0.612-0.166
		C38.764,13.441,38.56,13.384,38.342,13.384z"/>
</g>
<g>
	<path fill="#FFFFFF" d="M80.287,19.027c-0.11,0-0.216-0.007-0.321-0.021c-0.74-0.103-1.34-0.552-1.785-1.338
		c-0.145-0.255-0.246-0.507-0.311-0.753c-1.189,1.156-2.55,2.095-3.613,2.095c-0.01,0-0.017,0-0.024,0
		c-0.522-0.007-1.445-0.236-1.759-1.693c-0.337-1.555,1.466-3.732,3.293-4.712c1.337-0.718,2.528-0.695,3.267,0.062
		c0.105,0.11,0.164,0.248,0.175,0.389c0.101-0.141,0.2-0.281,0.294-0.419c0.169-0.25,0.492-0.342,0.768-0.22
		c0.274,0.123,0.422,0.423,0.351,0.716c-0.126,0.515-0.678,1.413-1.442,2.354c-0.211,0.542-0.217,1.036,0.085,1.568
		c0.247,0.438,0.532,0.673,0.873,0.719c0.401,0.057,1.321-0.097,2.986-1.741c0.245-0.242,0.639-0.239,0.88,0.005
		c0.242,0.245,0.238,0.638-0.005,0.878C82.562,18.334,81.344,19.027,80.287,19.027z M77.569,13.322
		c-0.446,0-0.957,0.239-1.214,0.377c-1.61,0.863-2.832,2.595-2.667,3.354c0.152,0.708,0.428,0.712,0.56,0.713
		c0.947,0.014,2.653-1.51,3.848-2.917c0.179-0.405,0.414-0.789,0.66-1.15c-0.214,0.059-0.449,0.003-0.614-0.165
		C77.99,13.379,77.788,13.322,77.569,13.322z"/>
</g>
<g>
	<path fill="#FFFFFF" d="M62.262,26.597c-0.957,0-1.942-0.054-2.955-0.162c-4.369-0.473-7.664-1.777-7.802-1.832
		c-0.319-0.127-0.474-0.488-0.347-0.808c0.127-0.318,0.488-0.473,0.808-0.347c0.128,0.052,12.974,5.066,20.828-1.441
		c0.266-0.219,0.657-0.182,0.876,0.082c0.218,0.265,0.182,0.656-0.083,0.876C70.693,25.361,66.817,26.597,62.262,26.597z"/>
</g>
<g>
	<path fill="#FFFFFF" d="M37.622,36c-0.678,0-1.25-0.212-1.662-0.628c-0.864-0.874-0.94-2.513-0.225-4.873
		c0.375-1.24,1.683-3.864,3.745-6.009c2.54-2.643,5.416-3.723,8.333-3.131c0.651-1.766,1.229-3.54,1.778-5.286
		c-0.06,0.074-0.12,0.148-0.18,0.221c-1.687,2.049-3.038,2.989-4.132,2.873c-0.569-0.06-1.324-0.43-1.689-1.856
		c-0.315-1.232,0.24-2.552,1.523-3.62c1.355-1.129,3.524-1.942,4.808-1.35c0.208,0.096,0.384,0.225,0.524,0.381
		c0.209-0.336,0.361-0.603,0.439-0.76c0.145-0.291,0.488-0.422,0.79-0.301c0.301,0.123,0.458,0.456,0.359,0.765
		c-0.229,0.719-0.459,1.461-0.695,2.218c-0.791,2.545-1.608,5.177-2.604,7.797c-1.905,5.014-3.937,8.549-6.396,11.127
		c-0.989,1.037-2.353,1.899-3.557,2.252C38.37,35.94,37.981,36,37.622,36z M46.24,22.441c-2.038,0-4.004,0.976-5.864,2.91
		c-1.896,1.972-3.123,4.425-3.451,5.508c-0.778,2.571-0.316,3.4-0.081,3.638c0.398,0.401,1.167,0.254,1.589,0.131
		c1.007-0.295,2.159-1.029,3.006-1.918c2.253-2.362,4.143-5.603,5.926-10.171C46.988,22.475,46.613,22.441,46.24,22.441z
		 M48.92,13.386c-0.78,0-2.039,0.451-3.011,1.26c-0.529,0.441-1.376,1.333-1.114,2.356c0.104,0.405,0.294,0.896,0.615,0.929
		c0.46,0.05,1.507-0.562,3.042-2.427c0.324-0.392,0.633-0.797,0.917-1.188c-0.024-0.018-0.049-0.037-0.072-0.058
		c-0.255-0.213-0.295-0.587-0.097-0.85C49.117,13.394,49.023,13.386,48.92,13.386z"/>
</g>
<g>
	<path fill="#FFFFFF" d="M57.694,19.545c-0.8,0-1.561-0.196-2.249-0.587c-0.475-0.268-0.855-0.614-1.134-1.028
		c-1.655,0.771-3.337,1.346-4.156,1.208c-0.556-0.094-0.764-0.438-0.838-0.634c-0.121-0.321,0.042-0.68,0.363-0.801
		c0.269-0.102,0.564-0.003,0.723,0.22c0.502,0.078,1.954-0.447,3.432-1.137c-0.012-0.057-0.022-0.114-0.031-0.173
		c-0.197-1.263,0.291-2.708,1.273-3.767c0.991-1.068,2.744-1.608,3.773-0.707c0.639,0.56,0.885,1.686-0.338,3.164
		c-0.43,0.518-1.658,1.325-3.069,2.065c0.161,0.199,0.366,0.368,0.615,0.51c0.85,0.481,1.826,0.556,2.901,0.221
		c1.685-0.523,3.098-1.894,3.624-2.974c0.15-0.308,0.521-0.438,0.831-0.288c0.309,0.15,0.438,0.522,0.287,0.83
		c-0.623,1.281-2.257,2.96-4.373,3.619C58.771,19.459,58.225,19.545,57.694,19.545z M57.53,12.925c-0.439,0-1.037,0.223-1.54,0.766
		c-0.661,0.712-1.032,1.676-0.98,2.514c1.164-0.611,2.18-1.256,2.544-1.696c0.532-0.642,0.724-1.219,0.477-1.436
		C57.922,12.979,57.745,12.925,57.53,12.925z"/>
</g>
<g>
	<path fill="#FFFFFF" d="M70.107,19.086c-0.229,0-0.446-0.029-0.646-0.099c-0.574-0.196-0.939-0.671-1.03-1.334
		c-0.113-0.828,0.455-1.742,1.058-2.709c0.198-0.32,0.386-0.621,0.538-0.903c0.327-0.61,0.299-0.802,0.292-0.83
		c-0.001,0-0.005-0.004-0.011-0.008c-0.483-0.344-0.811-0.311-1.016-0.255c-0.703,0.189-1.37,1.114-1.917,2.102
		c-0.284,0.712-0.645,1.396-0.997,2.066c-0.013,0.024-0.025,0.048-0.038,0.072c-0.212,0.465-0.377,0.809-0.534,1.019
		c-0.191,0.257-0.548,0.327-0.822,0.159c-0.273-0.167-0.375-0.515-0.233-0.804c0.15-0.307,0.313-0.617,0.473-0.92
		c0.034-0.076,0.068-0.152,0.104-0.228c0.261-0.578,0.568-1.256,0.931-1.917c0.087-0.225,0.164-0.451,0.227-0.676
		c0.128-0.457,0.016-0.806-0.315-0.981c-0.327-0.175-0.838-0.143-1.179,0.255c-0.294,0.347-0.484,0.851-0.705,1.436
		c-0.49,1.299-1.16,3.08-3.622,4.231c-0.301,0.141-0.659,0.021-0.814-0.273c-0.155-0.295-0.05-0.659,0.237-0.826
		c1.655-0.965,2.688-2.854,2.764-5.051c0.013-0.343,0.297-0.612,0.643-0.599c0.224,0.007,0.416,0.133,0.52,0.315
		c0.011-0.013,0.021-0.027,0.032-0.04c0.677-0.792,1.816-1.021,2.709-0.546c0.382,0.203,0.665,0.507,0.835,0.872
		c0.412-0.416,0.871-0.729,1.381-0.865c0.693-0.187,1.387-0.037,2.061,0.443c1.013,0.722,0.32,2.013,0.092,2.438
		c-0.17,0.317-0.377,0.649-0.577,0.97c-0.395,0.634-0.934,1.502-0.881,1.887c0.035,0.268,0.134,0.303,0.199,0.326
		c0.69,0.243,2.462-0.7,2.756-0.978c0.248-0.235,0.643-0.229,0.878,0.017c0.238,0.247,0.234,0.634-0.01,0.873
		C73.146,18.054,71.45,19.086,70.107,19.086z"/>
</g>
<g>
	<path fill="#FFFFFF" d="M88.477,19.028c-1.913,0-4.215-1.324-5.678-2.164c-0.264-0.151-0.49-0.281-0.666-0.375
		c-0.303-0.162-0.417-0.539-0.256-0.842c0.162-0.302,0.538-0.417,0.84-0.256c0.193,0.103,0.43,0.239,0.703,0.396
		c1.438,0.827,4.115,2.368,5.65,1.923c0.386-0.111,0.659-0.341,0.861-0.725c0.188-0.357,0.11-0.502,0.082-0.558
		c-0.417-0.782-3.109-1.07-4.402-1.209c-0.49-0.053-0.914-0.099-1.217-0.155c-0.295-0.055-0.508-0.312-0.508-0.611
		c0-1.155,0.739-2.162,1.932-2.627c1.216-0.475,2.974-0.379,4.154,0.906c0.232,0.253,0.216,0.646-0.036,0.878
		c-0.252,0.232-0.646,0.216-0.878-0.037c-0.785-0.852-1.964-0.91-2.786-0.59c-0.271,0.106-0.821,0.381-1.046,0.942
		c0.16,0.019,0.334,0.037,0.519,0.058c2.445,0.262,4.695,0.603,5.364,1.86c0.191,0.356,0.331,0.945-0.078,1.722
		c-0.36,0.682-0.903,1.133-1.615,1.338C89.118,18.991,88.803,19.028,88.477,19.028z"/>
</g>
<g>
	<path fill="#FFFFFF" d="M94.049,20.741c-0.305,0-0.57-0.224-0.615-0.532c-0.047-0.341,0.187-0.656,0.527-0.704
		c2.133-0.304,4.018-1.42,5.31-3.143c1.292-1.722,1.836-3.845,1.532-5.977c-0.305-2.131-1.421-4.016-3.144-5.308
		c-1.722-1.292-3.845-1.837-5.975-1.533c-2.93,0.418-5.391,2.403-6.422,5.179c-0.119,0.322-0.478,0.485-0.799,0.366
		c-0.322-0.12-0.485-0.478-0.366-0.799c1.19-3.203,4.029-5.493,7.41-5.975c2.46-0.351,4.91,0.277,6.897,1.768
		c1.988,1.491,3.276,3.667,3.627,6.128c0.352,2.46-0.276,4.91-1.768,6.896c-1.49,1.988-3.666,3.277-6.127,3.628
		C94.108,20.738,94.079,20.741,94.049,20.741z"/>
</g>
<g>
	<path fill="#FFFFFF" d="M88.303,9.377c-0.102,0-0.206-0.025-0.302-0.08C87.7,9.13,87.595,8.751,87.762,8.451
		c1.139-2.033,3.293-3.28,5.621-3.248C93.726,5.208,94,5.49,93.996,5.833c-0.003,0.344-0.288,0.626-0.629,0.614
		c-1.873-0.021-3.605,0.977-4.521,2.613C88.731,9.263,88.521,9.377,88.303,9.377z"/>
</g>
<g>
	<path fill="#FFFFFF" d="M102.384,6.57c-0.307,0-0.572-0.228-0.614-0.54c-0.346-2.59-2.624-2.576-2.885-2.567
		c-0.345,0.012-0.631-0.252-0.646-0.594c-0.016-0.342,0.247-0.632,0.589-0.648c1.271-0.062,3.771,0.622,4.175,3.646
		c0.044,0.34-0.194,0.652-0.535,0.697C102.438,6.567,102.413,6.57,102.384,6.57z"/>
</g>
<g>
	<path fill="#FFFFFF" d="M111.15,9.027c-0.139,0-0.281-0.007-0.425-0.021c-2.26-0.205-2.829-2.302-3.245-3.833l-0.063-0.236
		c-0.319-1.159-1.102-2.535-3.021-2.535c-0.015,0-0.029,0.001-0.045,0.001c-0.755,0.008-1.497,0.213-1.936,0.534
		c-0.064,0.048-0.173,0.17-0.239,0.269c0.028,0.144,0.008,0.3-0.07,0.438c-0.174,0.297-0.554,0.399-0.851,0.228
		c-0.221-0.129-0.354-0.35-0.369-0.61c-0.032-0.594,0.619-1.197,0.794-1.326c0.934-0.684,2.169-0.77,2.657-0.775
		c2.112-0.02,3.669,1.233,4.278,3.446l0.065,0.24c0.457,1.687,0.855,2.803,2.156,2.921c0.62,0.058,1.749-0.015,2.351-1.122
		c0.164-0.302,0.541-0.415,0.844-0.25c0.302,0.165,0.412,0.542,0.248,0.842C113.656,8.389,112.53,9.027,111.15,9.027z"/>
</g>
<g>
	<path fill="#FFFFFF" d="M115.117,9.025c-0.314,0-0.583-0.237-0.617-0.556c-0.036-0.342,0.213-0.647,0.554-0.684l1.844-0.193
		l-1.017-0.564c-0.3-0.167-0.408-0.545-0.242-0.844l1.385-2.505l-1.869,1.696c-0.144,0.132-0.343,0.187-0.534,0.15
		c-0.192-0.038-0.357-0.163-0.441-0.34l-0.295-0.609l-0.146,0.51c-0.096,0.33-0.44,0.52-0.77,0.425
		c-0.33-0.093-0.521-0.437-0.428-0.768l0.596-2.074c0.071-0.248,0.287-0.427,0.544-0.448c0.257-0.022,0.501,0.116,0.613,0.349
		l0.642,1.327l4.024-3.653c0.226-0.205,0.565-0.217,0.804-0.027c0.238,0.188,0.306,0.521,0.158,0.787l-2.896,5.239l2.198,1.22
		c0.236,0.132,0.36,0.403,0.307,0.668c-0.056,0.266-0.276,0.466-0.544,0.494l-3.804,0.398C115.16,9.025,115.14,9.025,115.117,9.025z
		"/>
</g>
<g>
	<path fill="#FFFFFF" d="M108.371,22.312c-0.144,0-0.285-0.05-0.4-0.146c-1.283-1.077-4.975-3.523-6.616-1.925
		c-0.245,0.24-0.639,0.235-0.879-0.011c-0.239-0.246-0.234-0.639,0.013-0.879c2.097-2.045,5.621-0.048,7.317,1.135
		c0.098-0.454,0.288-0.831,0.571-1.138c0.832-0.897,2.312-1.05,4.464-1.053c-0.724-0.458-1.264-0.999-1.612-1.622
		c-0.271-0.481-0.383-0.942-0.417-1.328c-2.851,0.824-4.521,0.776-5.227-0.141c-0.217-0.283-0.306-0.598-0.315-0.909l-5.107,3.001
		c-0.295,0.175-0.676,0.076-0.851-0.22s-0.075-0.677,0.22-0.851l6.458-3.795c0.248-0.145,0.563-0.102,0.763,0.106
		c0.2,0.207,0.231,0.524,0.076,0.767c-0.211,0.331-0.423,0.93-0.257,1.144c0.062,0.081,0.719,0.743,4.731-0.551
		c0.224-0.071,0.467-0.011,0.633,0.156c0.165,0.167,0.222,0.412,0.146,0.634c-0.005,0.019-0.192,0.654,0.248,1.41
		c0.579,0.998,1.988,1.774,4.076,2.248c0.308,0.069,0.515,0.36,0.479,0.676c-0.036,0.313-0.302,0.551-0.617,0.551
		c-0.001,0-0.001,0-0.001,0c-0.64-0.001-1.241-0.01-1.809-0.018c-2.623-0.036-4.518-0.062-5.169,0.641
		c-0.263,0.283-0.36,0.755-0.299,1.441c0.022,0.251-0.108,0.49-0.331,0.606C108.567,22.289,108.47,22.312,108.371,22.312z"/>
</g>
<g>
	<path fill="#FFFFFF" d="M99.316,17.948c-0.177,0-0.351-0.073-0.475-0.217c-0.222-0.26-0.192-0.649,0.067-0.873
		c0.104-0.091,2.625-2.214,6.552-0.69c0.322,0.125,0.479,0.484,0.355,0.804c-0.123,0.32-0.484,0.479-0.803,0.355
		c-3.207-1.243-5.212,0.404-5.296,0.474C99.602,17.9,99.457,17.948,99.316,17.948z"/>
</g>
</svg>
