<?xml version="1.0" encoding="utf-8"?>
<!-- Generator: Adobe Illustrator 16.0.0, SVG Export Plug-In . SVG Version: 6.00 Build 0)  -->
<!DOCTYPE svg PUBLIC "-//W3C//DTD SVG 1.1//EN" "http://www.w3.org/Graphics/SVG/1.1/DTD/svg11.dtd">
<svg version="1.1" id="Layer_1" xmlns="http://www.w3.org/2000/svg" xmlns:xlink="http://www.w3.org/1999/xlink" x="0px" y="0px"
	 width="28px" height="44px" viewBox="0 0 28 44" enable-background="new 0 0 28 44" xml:space="preserve">
<g>
	<path fill="#FFFFFF" d="M13.821,43.769l-0.452-0.639c-0.033-0.047-3.372-4.781-6.665-10.678C2.255,24.487,0,18.299,0,14.059
		C0,6.307,6.203,0,13.828,0s13.828,6.307,13.828,14.059c0,10.631-12.828,28.33-13.374,29.078L13.821,43.769z M13.828,1.124
		c-7.005,0-12.704,5.802-12.704,12.935c0,8.662,10.397,24.379,12.71,27.769c1.024-1.457,3.596-5.215,6.142-9.718
		c4.288-7.586,6.555-13.828,6.555-18.051C26.531,6.926,20.832,1.124,13.828,1.124z"/>
</g>
<g>
	<circle fill="#FFFFFF" cx="13.827" cy="10.929" r="3.117"/>
</g>
</svg>
