<?xml version="1.0" encoding="utf-8"?>
<!-- Generator: Adobe Illustrator 16.0.0, SVG Export Plug-In . SVG Version: 6.00 Build 0)  -->
<!DOCTYPE svg PUBLIC "-//W3C//DTD SVG 1.1//EN" "http://www.w3.org/Graphics/SVG/1.1/DTD/svg11.dtd">
<svg version="1.1" xmlns="http://www.w3.org/2000/svg" xmlns:xlink="http://www.w3.org/1999/xlink" x="0px" y="0px" width="12px"
	 height="16px" viewBox="0 0 12 16" enable-background="new 0 0 12 16" xml:space="preserve">
<g id="Layer_2" display="none">
	<rect display="inline" width="12" height="16"/>
</g>
<g id="Layer_1">
	<path fill="#FFFFFF" d="M7,2.958V2H6.563c0.187-1,0.31-0.615,0.31-0.883c0-0.498-0.404-1.009-0.902-1.009
		c-0.498,0-0.901,0.565-0.901,1.063C5.07,1.439,5.193,1,5.38,2H5v0.959c-3,0.616-4.805,2.98-4.805,5.809
		c0,3.297,2.576,5.971,5.875,5.971c3.298,0,5.756-2.674,5.756-5.971C11.825,5.938,10,3.575,7,2.958z"/>
</g>
</svg>
