<?xml version="1.0" encoding="utf-8"?>
<!-- Generator: Adobe Illustrator 16.0.0, SVG Export Plug-In . SVG Version: 6.00 Build 0)  -->
<!DOCTYPE svg PUBLIC "-//W3C//DTD SVG 1.1//EN" "http://www.w3.org/Graphics/SVG/1.1/DTD/svg11.dtd">
<svg version="1.1" id="Layer_1" xmlns="http://www.w3.org/2000/svg" xmlns:xlink="http://www.w3.org/1999/xlink" x="0px" y="0px"
	 width="580px" height="454px" viewBox="0 0 580 454" enable-background="new 0 0 580 454" xml:space="preserve">
<g opacity="0.8">
	<path fill="#FFFFFF" d="M565.893,108.031c-1.832-0.619-3.817,0.359-4.439,2.189c-8.216,24.21-21.811,40.667-40.406,48.913
		c-26.565,11.781-56.62,3.713-67.942-0.141c2.107-5.575,4.329-11.217,6.49-16.707c4.973-12.625,9.667-24.549,13.164-35.847
		c0.542-1.75-0.356-3.621-2.062-4.292c-1.705-0.669-3.638,0.085-4.435,1.735c-2.647,5.49-18.503,26.066-28.192,29.616
		c-3.628,1.33-8.787,1.636-10.264,0.059c-0.987-1.058-0.609-3.89,1.008-7.602c1.602-2.509,10.541-16.535,11.756-19.01
		c0.85-1.736,0.134-3.833-1.602-4.685c-1.735-0.85-3.832-0.134-4.685,1.601c-0.557,1.134-3.833,6.414-7.137,11.652
		c-12.425,16.958-26.086,19.743-34.024,16.969c-3.196-1.118-4.208-2.761-4.169-3.145c0.55-0.909,5.526-9.875,12.3-22.123h10.918
		c1.932,0,3.5-1.567,3.5-3.5s-1.566-3.5-3.5-3.5h-7.048c15.973-28.902,38.189-69.215,39.615-71.803
		c0.933-1.693,0.315-3.822-1.376-4.755c-1.695-0.933-3.822-0.317-4.755,1.376c-11.38,20.651-29.097,52.777-41.482,75.182h-13.627
		c-1.933,0-3.5,1.567-3.5,3.5s1.567,3.5,3.5,3.5h9.756c-5.832,10.54-9.833,17.742-10.29,18.497
		c-0.219,0.362-0.393,0.732-0.542,1.106c-0.027,0.022-0.059,0.037-0.086,0.061c-7.947,6.878-15.475,6.139-19.474,4.965
		c0.499-1.352,1.499-3.38,2.228-4.857c2.157-4.365,4.601-9.313,4.601-13.738c0-2.448-0.943-8.213-9.675-8.886
		c-6.437-0.502-14.405,4.578-22.768,11.787c0.55-0.992,1.079-1.995,1.567-3.013c1.985-1.298,3.887-2.848,5.651-4.628l2.188-2.203
		c10.456-10.522,19.486-19.608,31.156-38.218c6.305-10.051,12.501-22.012,16.578-31.996c7.253-17.758,5.138-22.571,2.485-24.779
		c-1.675-1.397-3.813-1.892-6.021-1.397c-8.902,2.001-23.063,23.803-42.085,64.802l-0.409,0.883
		c-1.727,3.685-3.432,7.188-5.081,10.576c-3.609,7.411-7.019,14.412-9.721,21.504c-0.073,0.191-0.148,0.384-0.227,0.575
		c-3.621,1.982-7.453,2.892-10.875,2.479c-1.821-0.221-3.467-0.82-4.946-1.754c0.754-1.878,1.503-3.74,2.246-5.569
		c0.689-1.695-0.044-3.635-1.681-4.451c-1.636-0.815-3.628-0.234-4.566,1.338c-0.454,0.761-1.058,1.674-1.769,2.688
		c-0.835-0.482-1.843-0.611-2.786-0.316c-0.322-0.237-0.657-0.464-1.021-0.667c-6.945-3.895-19.48-0.282-27.586,5.458
		c-6.5,4.603-10.135,10.445-10.353,16.411c-0.127,0.099-0.256,0.193-0.371,0.311c-5.109,5.24-12.924,7.367-16.236,5.696
		c-1.654-0.833-2.229-2.884-1.708-6.097c0.29-1.793,1.715-4.125,3.513-6.568c1.689-2.067,3.264-4.081,4.701-5.917
		c0.042-0.054,0.083-0.106,0.124-0.159c0.975-1.197,1.957-2.417,2.869-3.62c1.153-1.519,0.877-3.683-0.622-4.864
		c-1.501-1.183-3.669-0.945-4.875,0.533c-0.835,1.021-1.789,2.236-2.842,3.583c-0.246,0.301-0.491,0.601-0.735,0.9
		c-1.432,1.753-2.837,3.473-4.101,5.17c-6.271,7.624-14.744,16.653-21.83,17.481c-2.23,0.255-4.119-0.305-5.964-1.78
		c-1.829-1.461-2.816-2.842-2.934-4.104c-0.239-2.54,2.766-6.046,5.671-9.437c1.675-1.954,3.406-3.974,4.876-6.153
		c1.081-1.602,0.659-3.777-0.944-4.858c-1.598-1.081-3.777-0.66-4.858,0.944c-1.244,1.844-2.843,3.709-4.388,5.512
		c-2.657,3.101-5.376,6.274-6.641,9.746c-0.002,0.002-0.004,0.003-0.006,0.005c-9.382,9.266-14.561,10.128-16.821,9.812
		c-1.919-0.267-3.528-1.592-4.922-4.051c-1.7-3.001-1.67-5.785-0.482-8.836c4.306-5.298,7.42-10.353,8.129-13.254
		c0.402-1.645-0.431-3.341-1.979-4.029c-1.549-0.69-3.367-0.168-4.317,1.232c-0.529,0.78-1.088,1.568-1.657,2.366
		c-0.056-0.795-0.383-1.575-0.983-2.191c-4.156-4.269-10.861-4.4-18.392-0.357c-9.49,5.092-18.851,15.904-18.774,24.425
		c-0.46,0.058-0.917,0.206-1.342,0.457c-7.655,4.522-21.693,10.929-29.716,3.07c-3.058-2.993,0.101-8.486,3.289-12.568
		c0.041-0.052,0.079-0.103,0.117-0.157l41.67-59.989c0.028-0.042,0.057-0.085,0.084-0.128c4.408-6.979,5.508-13.675,3.362-20.472
		c-3.003-9.509-14.472-16.706-28.476-12.285c-0.264,0.083-0.493,0.151-0.699,0.212c-1.752,0.52-2.567,0.86-5.526,2.914
		c-1.1,0.762-2.488,2.203-3.921,3.884c-1.103-3.56-3.309-6.653-6.396-8.853c-3.725-2.655-8.263-3.701-12.775-2.944
		c-4.512,0.757-8.46,3.226-11.114,6.951c-1.079,1.512-1.899,3.176-2.439,4.946c-0.565,1.848,0.477,3.805,2.326,4.369
		c1.854,0.564,3.806-0.477,4.369-2.326c0.318-1.045,0.804-2.03,1.444-2.926c1.569-2.203,3.904-3.663,6.572-4.11
		c2.667-0.445,5.352,0.17,7.555,1.741c2.203,1.57,3.663,3.903,4.111,6.571c0.379,2.264-0.016,4.536-1.102,6.52
		c-0.04,0.058-0.09,0.131-0.122,0.179L99.513,74.769l-3.281,4.718c-8.562,12.326-14.734,21.204-25.019,33.007
		c-0.001,0.002-0.003,0.003-0.005,0.005c-0.002,0.003-0.005,0.006-0.008,0.009c-2.153,2.471-4.475,5.062-7.049,7.849
		c-0.188,0.204-0.339,0.426-0.47,0.658c-1.376,1.402-2.524,2.445-3.185,2.824c-2.408,1.384-2.652,1.434-3.673,1.644
		c-0.246,0.05-0.52,0.107-0.837,0.178c-7.999,1.791-15.965-3.254-17.758-11.252c-0.869-3.875-0.177-7.855,1.948-11.209
		c2.125-3.353,5.43-5.678,9.304-6.547c1.885-0.423,3.072-2.295,2.649-4.181c-0.424-1.885-2.29-3.074-4.181-2.649
		c-5.7,1.277-10.559,4.697-13.685,9.63c-3.127,4.933-4.144,10.789-2.866,16.487c2.277,10.16,11.327,17.084,21.332,17.083
		c1.58,0,3.184-0.172,4.789-0.533c0.271-0.06,0.503-0.108,0.713-0.151c1.789-0.368,2.63-0.637,5.752-2.43
		c3.773-2.167,11.209-11.21,12.662-13c0,0,0,0,0-0.001c10.518-12.104,16.977-21.395,25.335-33.427l3.264-4.693l23.336-33.102
		c0.126-0.129,0.259-0.25,0.367-0.401c0.337-0.473,0.647-0.959,0.932-1.456c3.347-4.879,7.761-10.596,9.369-11.71
		c2.286-1.587,2.524-1.657,3.526-1.954c0.241-0.072,0.508-0.151,0.818-0.249c9.819-3.1,17.723,1.489,19.69,7.718
		c1.502,4.757,0.688,9.386-2.564,14.563l-41.57,59.845c-9.354,12.027-5.654,18.82-2.61,21.8c3.884,3.804,8.859,5.7,14.682,5.7
		c6.718-0.001,14.566-2.529,23.164-7.557c2.345,4.152,5.963,4.948,8.236,4.979c0.045,0.001,0.09,0.001,0.136,0.001
		c5.999,0,13.65-5.293,20.353-11.799c0.363,1.385,0.934,2.798,1.751,4.24c2.503,4.421,5.884,6.955,10.048,7.534
		c0.594,0.082,1.197,0.124,1.81,0.124c4.865-0.001,10.335-2.613,16.579-7.92c0.932,1.709,2.339,3.337,4.248,4.864
		c3.308,2.645,7.059,3.747,11.146,3.265c5.543-0.647,11.001-4.167,16.024-8.731c0.803,4.465,3.586,6.614,5.521,7.589
		c1.73,0.872,3.78,1.284,5.989,1.284c4.911,0,10.605-2.043,15.31-5.615c1.887,4.461,4.876,6.023,7.329,6.478
		c6.094,1.13,14.094-3.552,24.465-14.308c0.369-0.383,0.738-0.77,1.105-1.161c-3.855,9.562-7.881,19.266-12.315,28.891
		c-16.117-4.607-32.74,0.183-48.165,13.902c-12.516,11.13-21.012,25.286-23.669,32.087c-5.054,12.934-5.351,22.172-0.882,27.453
		c2.408,2.846,6.068,4.319,10.567,4.319c1.591,0,3.288-0.186,5.072-0.559c6.917-1.443,14.949-5.688,20.962-11.074
		c14.94-13.386,27.91-32.339,40.813-59.647c6.748-14.275,12.498-28.684,18.059-42.618c2.053,1.105,4.307,1.824,6.734,2.119
		c2.201,0.267,4.477,0.178,6.755-0.244c-0.005,0.007-0.01,0.015-0.016,0.024c-2.769,4.567-5.632,9.289-6.851,14.435
		c-0.358,1.507,0.318,3.07,1.661,3.841c1.342,0.773,3.032,0.568,4.156-0.498c0.648-0.618,1.539-1.507,2.617-2.586
		c5.417-5.416,21.885-21.863,29.541-21.312c3.213,0.248,3.213,1.092,3.213,1.907c0,2.791-2.148,7.143-3.876,10.64
		c-2.341,4.74-4.031,8.165-2.902,11.116c0.49,1.28,1.472,2.271,2.765,2.79c1.6,0.641,5.06,1.773,9.537,1.773
		c4.485,0,9.992-1.147,15.667-5.052c0.756,0.937,1.718,1.812,2.881,2.587c2.918,1.945,7.144,3.271,12.124,3.271
		c6.302,0,13.814-2.13,21.419-7.816c0.148,2.292,0.939,4.225,2.389,5.776c4.533,4.853,13.312,3.373,17.785,1.735
		c5.676-2.078,12.296-8.006,18.071-14.364c-1.747,4.569-3.587,9.241-5.467,14.015c-2.201,5.591-4.465,11.338-6.616,17.033
		c-16.021-3.301-31.81,2.787-45.747,17.678c-11.3,12.074-18.467,26.848-20.527,33.831c-3.957,13.417-3.488,22.685,1.396,27.546
		c2.27,2.256,5.373,3.406,9.04,3.406c1.987,0,4.14-0.338,6.412-1.02c6.626-1.988,14.117-6.857,19.552-12.709
		c13.043-14.041,23.898-33.127,34.045-59.905c12.092,4.216,43.975,12.909,73.201-0.028c20.48-9.064,35.366-26.925,44.244-53.083
		C568.703,110.639,567.722,108.652,565.893,108.031z M349.57,89.241c1.661-3.411,3.379-6.939,5.127-10.674l0.42-0.903
		c25.563-55.099,35.517-60.384,37.156-60.886c0.202,1.129,0.346,5.55-5.03,18.268c-3.919,9.271-9.663,20.233-15.363,29.324
		c-9.815,15.652-17.426,24.05-26.229,33.002C346.908,94.707,348.224,92.004,349.57,89.241z M184.383,113.536
		c-6.699,7.894-16.245,16.43-21.6,16.43c-0.022,0-0.045,0-0.067,0c-0.745-0.01-2.296-0.032-3.157-4.017
		c-0.926-4.279,5.961-14.033,15.021-18.894c1.453-0.78,4.324-2.124,6.836-2.124c1.233,0,2.38,0.323,3.23,1.196
		c0.926,0.951,2.258,1.262,3.45,0.93C186.715,109.096,185.387,111.257,184.383,113.536z M251.332,212.615
		c-5.149,4.613-11.939,8.229-17.723,9.437c-2.424,0.507-6.805,0.999-8.862-1.432c-1.214-1.436-3.446-6.297,2.058-20.384
		c2.32-5.935,10.289-19.166,21.801-29.403c10.374-9.225,20.892-13.86,31.401-13.86c3.027,0,6.056,0.385,9.078,1.156
		C277.061,182.985,265.021,200.349,251.332,212.615z M280.139,131.394c-1.783-0.331-2.639-3.165-3.042-5.483
		c-1.02-5.867,4.132-10.5,7.295-12.739c5.382-3.811,12.01-5.788,16.441-5.788c1.54,0,2.813,0.239,3.678,0.723
		c0.542,0.304,1.023,0.688,0.933,2.037c-0.021,0.304-0.002,0.601,0.053,0.887C297.254,120.868,285.576,132.396,280.139,131.394z
		 M411.462,220.722c-4.636,4.992-10.933,9.118-16.436,10.768c-2.253,0.676-6.356,1.492-8.502-0.645
		c-1.324-1.318-3.938-5.965,0.38-20.604c2.381-8.072,21.058-47.38,50.969-47.38c1.984,0,4.021,0.173,6.103,0.541
		C434.193,189.147,423.823,207.414,411.462,220.722z"/>
	<path fill="#FFFFFF" d="M242.141,433.306c-5.01,3.112-14.798,7.553-24.028,2.325c-1.165-0.659-2.146-1.439-2.941-2.337
		c8.031-4.789,15.486-9.796,17.581-11.955c6.039-6.226,6.303-10.964,5.461-13.843c-0.918-3.135-3.543-5.427-7.203-6.289
		c-4.811-1.134-12.057,0.312-17.413,6.094c-5.874,6.34-8.83,14.736-7.715,21.914c0.064,0.418,0.142,0.828,0.233,1.232
		c-2.6,1.465-5.136,2.826-7.435,3.971c-0.163,0.06-0.326,0.118-0.483,0.203c-0.565,0.309-1.136,0.592-1.708,0.855
		c-0.053,0.024-0.104,0.047-0.157,0.071c-8.977,4.068-18.537,2.698-22.286-1.438c-3.05-3.366-1.174-7.769,0.936-10.869
		c11.446-16.804,16.311-16.565,16.82-16.482c0.998,0.16,1.555,1.849,1.58,1.926c0.496,1.849,2.393,2.959,4.247,2.483
		c1.873-0.479,3.002-2.386,2.523-4.258c-0.576-2.253-2.726-6.273-7.124-7.044c-6.458-1.124-14.03,5.044-23.832,19.436
		c-2.43,3.568-3.476,6.719-3.716,9.415c-0.49,0.098-0.969,0.291-1.398,0.608c-4.809,3.553-14.216,8.696-18.97,7.379
		c-0.785-0.218-1.772-0.681-2.489-2.333c-0.414-4.271,13.833-22.429,16.706-26.041c2.817-3.543,4.233-5.322,2.087-7.59
		c-1.198-1.267-3.214-1.429-4.636-0.421c-0.527,0.374-0.921,0.867-1.168,1.419c-0.382,0.499-1.081,1.378-1.762,2.233
		c-9.553,12.013-14.974,19.997-17.121,25.538c-10.187,7.279-24.827,10.692-31.835,3.826c-3.058-2.993,0.101-8.486,3.289-12.568
		c0.041-0.052,0.079-0.103,0.117-0.156l41.67-59.989c0.028-0.042,0.057-0.085,0.084-0.128c4.408-6.979,5.508-13.676,3.362-20.473
		c-3.003-9.508-14.471-16.707-28.476-12.285c-0.264,0.085-0.493,0.152-0.699,0.213c-1.752,0.52-2.567,0.859-5.526,2.914
		c-1.1,0.762-2.488,2.203-3.921,3.884c-1.103-3.559-3.309-6.653-6.396-8.853c-7.694-5.48-18.41-3.682-23.89,4.008
		c-1.079,1.512-1.899,3.176-2.439,4.945c-0.565,1.848,0.477,3.805,2.326,4.369c1.851,0.562,3.806-0.477,4.369-2.326
		c0.318-1.045,0.804-2.029,1.444-2.926c3.242-4.548,9.58-5.609,14.127-2.369c2.203,1.57,3.663,3.903,4.111,6.571
		c0.38,2.266-0.016,4.539-1.104,6.524c-0.038,0.056-0.087,0.127-0.119,0.174l-24.253,34.4l-3.281,4.719
		c-8.555,12.316-14.725,21.189-24.995,32.979c-0.009,0.012-0.021,0.02-0.031,0.031c-0.017,0.021-0.034,0.041-0.05,0.062
		c-2.141,2.456-4.448,5.029-7.005,7.798c-0.187,0.202-0.337,0.422-0.467,0.651c-1.379,1.404-2.529,2.45-3.19,2.829
		c-2.408,1.384-2.652,1.434-3.673,1.644c-0.246,0.051-0.52,0.107-0.837,0.179c-3.873,0.864-7.856,0.177-11.21-1.948
		s-5.679-5.43-6.548-9.304c-1.779-7.935,5.628-15.751,12.162-22.647l0.306-0.322c1.329-1.402,1.269-3.619-0.134-4.947
		c-1.403-1.331-3.619-1.269-4.948,0.134l-0.305,0.321c-7.354,7.762-16.507,17.421-13.911,28.993
		c1.278,5.7,4.698,10.561,9.632,13.687c3.544,2.245,7.563,3.403,11.661,3.403c1.605,0,3.222-0.179,4.827-0.54
		c0.271-0.061,0.503-0.108,0.713-0.151c1.789-0.368,2.63-0.637,5.752-2.43c3.747-2.152,11.101-11.078,12.625-12.954
		c10.54-12.127,17.006-21.425,25.375-33.473l3.264-4.693l23.339-33.105c0.125-0.128,0.257-0.247,0.364-0.397
		c0.336-0.472,0.646-0.957,0.93-1.454c3.347-4.88,7.763-10.598,9.371-11.712c2.286-1.587,2.524-1.657,3.526-1.954
		c0.241-0.072,0.508-0.15,0.818-0.249c9.819-3.099,17.723,1.489,19.69,7.718c1.502,4.758,0.688,9.387-2.564,14.562l-41.57,59.846
		c-9.354,12.027-5.654,18.82-2.61,21.8c4.073,3.99,9.544,5.676,15.438,5.676c7-0.001,14.593-2.381,21.135-6.105
		c1.441,2.812,3.728,4.725,6.68,5.541c1.111,0.307,2.281,0.444,3.483,0.444c7.677-0.001,16.636-5.573,20.135-7.968
		c0.648,1.261,1.397,2.23,1.992,2.886c3.71,4.092,9.733,6.19,16.337,6.189c4.208,0,8.648-0.865,12.875-2.596
		c0.126-0.041,0.253-0.07,0.377-0.126c3.026-1.357,6.731-3.282,10.583-5.437c1.444,1.935,3.333,3.576,5.632,4.878
		c3.877,2.194,8.179,3.282,12.679,3.282c5.995,0,12.341-1.932,18.491-5.751c1.642-1.02,2.147-3.177,1.127-4.82
		C245.941,432.79,243.784,432.289,242.141,433.306z M212.658,426.629c-0.166-4.743,2.116-10.3,6.074-14.571
		c2.788-3.008,6.292-4.222,8.978-4.222c0.614,0,1.186,0.063,1.696,0.184c0.538,0.128,1.819,0.521,2.089,1.441
		c0.323,1.106-0.469,3.604-3.768,7.004C226.208,418.031,219.823,422.314,212.658,426.629z"/>
	<path fill="#FFFFFF" d="M345.729,274.352l-2.732,0.258c-0.957,0.091-1.94,0.185-2.947,0.279c-0.271-2.389-1.088-4.892-2.588-7.429
		l-0.535-0.905c-1.753-2.976-2.022-3.396-4.331-6.176c-0.248-0.298-0.576-0.641-0.948-1.021c-1.306-1.338-1.976-2.189-1.773-2.869
		c0.473-1.586-0.229-3.284-1.681-4.074c-1.455-0.79-3.263-0.455-4.335,0.802c-1.692,1.982-2.548,3.175-3.631,4.687
		c-0.416,0.58-0.876,1.221-1.444,1.994l-1.11,1.511c-1.703,2.324-3.713,5.06-5.829,7.695c-0.295,0.212-0.57,0.459-0.797,0.769
		c-1.456,1.993-2.93,3.784-4.408,5.401c-1.366-0.222-2.681-0.488-3.915-0.816c-0.979-0.263-2.021-0.085-2.859,0.481
		c-0.838,0.567-1.391,1.469-1.514,2.474c-0.192,1.565,0.008,3.156,0.571,4.732c-8.507,5.97-16.559,6.661-21.959,4.775
		c-3.196-1.118-4.208-2.761-4.169-3.146c0.228-0.377,1.22-2.144,2.782-4.95c0.022-0.027,0.046-0.055,0.068-0.083
		c0.235-0.301,0.397-0.633,0.52-0.974c2.43-4.37,5.988-10.796,10.128-18.282h12.301c1.932,0,3.499-1.567,3.499-3.5
		c0-1.934-1.567-3.5-3.5-3.5h-8.431c15.863-28.708,37.027-67.112,38.418-69.636c0.933-1.693,0.315-3.822-1.376-4.755
		c-1.694-0.933-3.822-0.316-4.755,1.376c-11.019,19.995-27.976,50.746-40.284,73.015H271.65c-1.933,0-3.5,1.566-3.5,3.5
		c0,1.933,1.567,3.5,3.5,3.5h6.643c-3.542,6.403-6.499,11.739-8.531,15.394c-1.114,1.376-2.378,2.72-3.781,3.998
		c-7.37,6.716-19.602,12.506-29.829,6.715c-1.379-0.78-2.522-1.721-3.424-2.817c7.925-4.551,15.002-9.197,17.144-11.56
		c7.265-8.017,6.051-14.356,2.492-17.619c-5.843-5.353-16.141-2.364-21.729,3.667c-5.528,5.967-8.276,14.094-7.171,21.211
		c0.069,0.446,0.153,0.885,0.25,1.318c-4.93,2.668-9.9,5.126-13.914,6.738c-0.272,0.109-0.515,0.258-0.743,0.423
		c-4.751,1.404-10.409,1.711-15.879-1.388c-1.282-0.726-2.36-1.59-3.23-2.59c7.551-4.525,14.615-9.379,16.869-11.701
		c6.039-6.227,6.303-10.965,5.461-13.844c-0.918-3.135-3.543-5.427-7.203-6.289c-4.81-1.133-12.057,0.313-17.413,6.094
		c-5.529,5.968-8.276,14.096-7.171,21.213c0.092,0.589,0.207,1.166,0.347,1.729c-0.222,0.123-0.44,0.239-0.662,0.361
		c-0.278,0.08-0.553,0.183-0.814,0.337c-1.004,0.593-2.12,1.219-3.315,1.84c-1.206,0.607-2.385,1.177-3.502,1.677
		c-0.02,0.009-0.035,0.021-0.054,0.031c-7.532,3.309-16.861,5.384-22.845-0.479c-3.058-2.992,0.101-8.485,3.289-12.567
		c0.054-0.067,0.105-0.14,0.154-0.212l26.706-40.047c4.408-6.979,5.508-13.675,3.362-20.472
		c-3.003-9.509-14.473-16.707-28.476-12.285c-0.264,0.084-0.493,0.151-0.699,0.212c-0.553,0.164-1.014,0.315-1.477,0.503
		c0.233-2.815-0.09-5.621-0.981-8.444c-3.003-9.509-14.471-16.706-28.476-12.285c-0.264,0.084-0.493,0.151-0.699,0.212
		c-1.752,0.519-2.567,0.86-5.526,2.914c-1.1,0.762-2.488,2.203-3.921,3.884c-1.103-3.56-3.309-6.654-6.396-8.854
		c-7.694-5.481-18.41-3.682-23.89,4.007c-1.079,1.512-1.899,3.176-2.439,4.946c-0.565,1.848,0.477,3.805,2.326,4.369
		c1.854,0.562,3.805-0.477,4.369-2.326c0.318-1.045,0.804-2.03,1.444-2.926c3.242-4.548,9.58-5.609,14.127-2.369
		c2.203,1.57,3.663,3.903,4.111,6.571c0.38,2.269-0.018,4.546-1.109,6.533c-0.036,0.053-0.083,0.123-0.114,0.167l-24.253,34.401
		l-3.281,4.718c-8.558,12.321-14.729,21.197-25.007,32.994c-0.005,0.006-0.012,0.011-0.017,0.017
		c-0.009,0.012-0.019,0.022-0.028,0.034c-2.148,2.464-4.462,5.047-7.029,7.825c-0.188,0.203-0.338,0.425-0.469,0.654
		c-1.377,1.403-2.526,2.447-3.186,2.826c-2.408,1.385-2.652,1.435-3.673,1.645c-0.246,0.051-0.52,0.107-0.837,0.178
		c-7.996,1.789-15.964-3.254-17.758-11.252c-0.869-3.875-0.177-7.854,1.948-11.209c2.125-3.353,5.43-5.678,9.304-6.547
		c1.885-0.423,3.072-2.295,2.649-4.181c-0.424-1.886-2.291-3.075-4.181-2.649c-5.7,1.277-10.559,4.697-13.685,9.631
		c-3.127,4.933-4.144,10.789-2.866,16.486c2.277,10.16,11.327,17.084,21.332,17.083c1.579,0,3.184-0.173,4.789-0.533
		c0.271-0.06,0.503-0.108,0.713-0.151c1.789-0.367,2.63-0.637,5.752-2.43c3.762-2.16,11.164-11.153,12.646-12.98
		c10.526-12.113,16.989-21.407,25.352-33.446l3.264-4.692l23.34-33.109c0.125-0.127,0.256-0.247,0.363-0.396
		c0.336-0.471,0.645-0.956,0.929-1.451c3.349-4.881,7.766-10.602,9.372-11.714c2.286-1.587,2.524-1.657,3.526-1.954
		c0.241-0.072,0.508-0.151,0.818-0.249c9.818-3.1,17.723,1.49,19.69,7.718c1.502,4.757,0.688,9.386-2.564,14.562l-41.626,59.926
		c-1.102,1.588-0.709,3.768,0.878,4.871c1.588,1.102,3.768,0.711,4.872-0.877l11.989-17.26c0.014-0.02,0.032-0.033,0.046-0.053
		l24.278-34.438c3.384-4.985,8.064-11.079,9.726-12.231c2.286-1.587,2.524-1.657,3.526-1.954c0.241-0.072,0.508-0.151,0.818-0.249
		c9.818-3.101,17.723,1.49,19.69,7.718c1.507,4.778,0.68,9.425-2.558,14.553l-26.588,39.867
		c-9.328,12.008-5.631,18.793-2.589,21.771c3.884,3.805,8.859,5.701,14.682,5.701c5.997,0,12.895-2.014,20.423-6.022
		c1.282-0.658,2.604-1.362,3.956-2.108c1.52,2.043,3.506,3.774,5.922,5.143c3.877,2.193,8.179,3.281,12.679,3.281
		c5.995,0,12.341-1.931,18.491-5.752c0.07-0.044,0.126-0.101,0.192-0.148c1.775-0.888,3.606-1.839,5.45-2.829
		c1.549,2.187,3.616,4.032,6.162,5.474c4.087,2.312,8.35,3.284,12.562,3.284c7.793,0,15.406-3.332,21.388-7.645
		c0.804,1.551,2.129,3.008,3.946,4.218c2.918,1.945,7.143,3.271,12.124,3.271c5.93,0,12.931-1.887,20.075-6.847
		c4.215,4.197,10.858,7.364,15.678,7.364c5.696,0,10.281-1.715,15.33-5.736c2.387-1.9,4.359-4.525,5.443-7.602
		c1.518-0.139,2.993-0.278,4.41-0.413l2.718-0.257c1.925-0.18,3.34-1.887,3.161-3.811
		C349.359,275.587,347.65,274.182,345.729,274.352z M187.295,276.415c-0.385-4.776,1.711-10.331,5.501-14.421
		c2.788-3.008,6.292-4.223,8.978-4.223c0.615,0,1.186,0.064,1.696,0.185c0.538,0.127,1.819,0.521,2.089,1.44
		c0.323,1.106-0.469,3.604-3.768,7.004C200.261,267.979,194.21,272.208,187.295,276.415z M230.248,276.125
		c-0.271-4.703,1.815-10.105,5.522-14.105c2.779-2.998,6.171-4.215,8.723-4.215c1.36,0,2.48,0.344,3.142,0.951
		c1.333,1.223,0.149,4.34-2.95,7.758C243.246,268.1,237.301,272.025,230.248,276.125z M329.448,284.118
		c-3.809,3.03-6.884,4.212-10.973,4.212c-2.532,0-7.084-1.986-10.184-4.796c0.311-0.287,0.62-0.578,0.931-0.878
		c6.858,0.699,14.486,0.5,21.719,0.011C330.485,283.208,329.98,283.693,329.448,284.118z M315.174,276.057
		c3.005-3.504,5.842-7.371,8.144-10.511l1.099-1.496c0.333-0.45,0.629-0.858,0.901-1.235c0.48,0.574,0.95,1.055,1.324,1.438
		c0.221,0.227,0.423,0.424,0.568,0.602c2.027,2.44,2.089,2.547,3.688,5.258l0.539,0.914c0.93,1.572,1.442,3.07,1.632,4.469
		C327.191,275.948,320.962,276.258,315.174,276.057z"/>
	<circle fill="#FFFFFF" cx="167.512" cy="389.679" r="3.878"/>
</g>
</svg>
